<?xml version="1.0" encoding="UTF-8"?>
<svg width="40px" height="40px" viewBox="0 0 40 40" version="1.1" xmlns="http://www.w3.org/2000/svg" xmlns:xlink="http://www.w3.org/1999/xlink">
    <!-- Generator: Sketch 46.2 (44496) - http://www.bohemiancoding.com/sketch -->
    <title>Icon/Check/Black</title>
    <desc>Created with Sketch.</desc>
    <defs></defs>
    <g id="Page-1" stroke="none" stroke-width="1" fill="none" fill-rule="evenodd">
        <g id="Desktop/Frontpage-Copy" transform="translate(-79.000000, -178.000000)" fill="#000000">
            <g id="Icon/Check/Black" transform="translate(79.000000, 178.000000)">
                <path d="M20,40 C8.954305,40 0,31.045695 0,20 C0,8.954305 8.954305,0 20,0 C31.045695,0 40,8.954305 40,20 C40,31.045695 31.045695,40 20,40 Z M20,37.0992366 C29.4436476,37.0992366 37.0992366,29.4436476 37.0992366,20 C37.0992366,10.5563524 29.4436476,2.90076336 20,2.90076336 C10.5563524,2.90076336 2.90076336,10.5563524 2.90076336,20 C2.90076336,29.4436476 10.5563524,37.0992366 20,37.0992366 Z" id="Combined-Shape"></path>
                <polygon id="Combined-Shape" points="16.9369078 24.2204693 12.2984495 17.9156731 10.0763359 19.7802478 16.9527823 28.7521744 30.0025041 13.1622847 27.7803905 11.2977099"></polygon>
            </g>
        </g>
    </g>
</svg>